<svg width="31" height="30" viewBox="0 0 31 30" fill="none" xmlns="http://www.w3.org/2000/svg">
<path d="M15.1309 0C13.161 0 11.2105 0.387987 9.39061 1.14181C7.57072 1.89563 5.91714 3.00052 4.52426 4.3934C1.71121 7.20644 0.130859 11.0218 0.130859 15C0.130859 21.63 4.43586 27.255 10.3909 29.25C11.1409 29.37 11.3809 28.905 11.3809 28.5V25.965C7.22586 26.865 6.34086 23.955 6.34086 23.955C5.65086 22.215 4.67586 21.75 4.67586 21.75C3.31086 20.82 4.78086 20.85 4.78086 20.85C6.28086 20.955 7.07586 22.395 7.07586 22.395C8.38086 24.675 10.5859 24 11.4409 23.64C11.5759 22.665 11.9659 22.005 12.3859 21.63C9.05586 21.255 5.56086 19.965 5.56086 14.25C5.56086 12.585 6.13086 11.25 7.10586 10.185C6.95586 9.81 6.43086 8.25 7.25586 6.225C7.25586 6.225 8.51586 5.82 11.3809 7.755C12.5659 7.425 13.8559 7.26 15.1309 7.26C16.4059 7.26 17.6959 7.425 18.8809 7.755C21.7459 5.82 23.0059 6.225 23.0059 6.225C23.8309 8.25 23.3059 9.81 23.1559 10.185C24.1309 11.25 24.7009 12.585 24.7009 14.25C24.7009 19.98 21.1909 21.24 17.8459 21.615C18.3859 22.08 18.8809 22.995 18.8809 24.39V28.5C18.8809 28.905 19.1209 29.385 19.8859 29.25C25.8409 27.24 30.1309 21.63 30.1309 15C30.1309 13.0302 29.7429 11.0796 28.9891 9.25975C28.2352 7.43987 27.1303 5.78628 25.7375 4.3934C24.3446 3.00052 22.691 1.89563 20.8711 1.14181C19.0512 0.387987 17.1007 0 15.1309 0Z" fill="#FEFBCF"/>
</svg>
