<svg width="12" height="12" viewBox="0 0 12 12" fill="none" xmlns="http://www.w3.org/2000/svg">
<path d="M6 12C4.81332 12 3.65328 11.6481 2.66658 10.9888C1.67989 10.3295 0.910852 9.39246 0.456726 8.29611C0.00259971 7.19975 -0.11622 5.99335 0.115291 4.82946C0.346803 3.66558 0.918247 2.59648 1.75736 1.75736C2.59648 0.918247 3.66558 0.346803 4.82946 0.115291C5.99335 -0.11622 7.19975 0.00259971 8.29611 0.456726C9.39246 0.910852 10.3295 1.67989 10.9888 2.66658C11.6481 3.65328 12 4.81332 12 6C12 7.5913 11.3679 9.11743 10.2426 10.2426C9.11743 11.3679 7.5913 12 6 12ZM6 0.92308C4.99588 0.92308 4.01431 1.22084 3.17942 1.7787C2.34452 2.33656 1.6938 3.12946 1.30954 4.05715C0.925277 4.98484 0.824737 6.00564 1.02063 6.99046C1.21653 7.97529 1.70006 8.87991 2.41008 9.58993C3.1201 10.3 4.02472 10.7835 5.00955 10.9794C5.99437 11.1753 7.01517 11.0747 7.94286 10.6905C8.87055 10.3062 9.66345 9.65549 10.2213 8.82059C10.7792 7.9857 11.0769 7.00413 11.0769 6C11.0769 4.65352 10.542 3.36219 9.58993 2.41008C8.63783 1.45797 7.34649 0.92308 6 0.92308Z" fill="#F7F6EC"/>
<path d="M8.53907 8.9998C8.47833 9.00015 8.41812 8.98851 8.36188 8.96554C8.30565 8.94257 8.25451 8.90873 8.21138 8.86595L5.67292 6.32749C5.63014 6.28436 5.5963 6.23322 5.57333 6.17698C5.55036 6.12075 5.53872 6.06054 5.53907 5.99979V2.30749C5.53907 2.18508 5.5877 2.06768 5.67425 1.98113C5.76081 1.89457 5.8782 1.84595 6.00061 1.84595C6.12302 1.84595 6.24041 1.89457 6.32697 1.98113C6.41352 2.06768 6.46215 2.18508 6.46215 2.30749V5.81056L8.86676 8.21057C8.91002 8.25347 8.94436 8.30452 8.96779 8.36076C8.99122 8.417 9.00329 8.47733 9.00329 8.53826C9.00329 8.59919 8.99122 8.65951 8.96779 8.71575C8.94436 8.772 8.91002 8.82304 8.86676 8.86595C8.82364 8.90873 8.77249 8.94257 8.71626 8.96554C8.66003 8.98851 8.59981 9.00015 8.53907 8.9998Z" fill="#F7F6EC"/>
</svg>
