<?xml version="1.0" encoding="UTF-8"?>
<svg id="Layer_1" data-name="Layer 1" xmlns="http://www.w3.org/2000/svg" version="1.1" xmlns:xlink="http://www.w3.org/1999/xlink" viewBox="0 0 379 94">
  <defs>
    <style>
      .cls-1, .cls-2 {
        fill: #000;
      }

      .cls-1, .cls-3, .cls-4 {
        stroke-width: 0px;
      }

      .cls-5, .cls-2, .cls-6, .cls-7, .cls-8, .cls-9, .cls-10 {
        isolation: isolate;
      }

      .cls-5, .cls-6, .cls-8, .cls-9, .cls-4, .cls-10 {
        fill: #fff;
      }

      .cls-5, .cls-6, .cls-8, .cls-9, .cls-10 {
        font-family: ArialMT, Arial;
        font-size: 46px;
      }

      .cls-2 {
        font-family: RomainBPTextRegular, 'Romain BP Text';
        font-size: 11px;
      }

      .cls-6 {
        letter-spacing: 0em;
      }

      .cls-8 {
        letter-spacing: 0em;
      }

      .cls-9 {
        letter-spacing: 0em;
      }

      .cls-3 {
        fill: #fefbcf;
      }

      .cls-11 {
        mask: url(#mask-1);
      }

      .cls-12 {
        mask: url(#mask);
      }

      .cls-10 {
        letter-spacing: 0em;
      }
    </style>
    <mask id="mask" x="3979" y="348" width="379" height="104.7" maskUnits="userSpaceOnUse">
      <g id="SVGID">
        <g>
          <polygon class="cls-4" points="4205.3 351.3 4206.1 352 4155.1 403 4154.4 402.2 4205.3 351.3"/>
          <g class="cls-7">
            <text class="cls-10" transform="translate(3981 389.7)"><tspan x="0" y="0">Ha</tspan></text>
            <text class="cls-9" transform="translate(4042.6 389.7)"><tspan x="0" y="0">r</tspan></text>
            <text class="cls-8" transform="translate(4062.2 389.7)"><tspan x="0" y="0">v</tspan></text>
            <text class="cls-8" transform="translate(4085.9 389.7)"><tspan x="0" y="0">a</tspan></text>
            <text class="cls-5" transform="translate(4113 389.7)"><tspan x="0" y="0">r</tspan></text>
            <text class="cls-5" transform="translate(4129.8 389.7)"><tspan x="0" y="0">d</tspan></text>
            <text class="cls-5" transform="translate(3982.8 437.7)"><tspan x="0" y="0">A</tspan></text>
            <text class="cls-5" transform="translate(4016 437.7)"><tspan x="0" y="0">r</tspan></text>
            <text class="cls-5" transform="translate(4032.8 437.7)"><tspan x="0" y="0">t</tspan></text>
            <text class="cls-6" transform="translate(4049.3 437.7)"><tspan x="0" y="0"> </tspan></text>
            <text class="cls-8" transform="translate(4058.2 437.7)"><tspan x="0" y="0">M</tspan></text>
            <text class="cls-6" transform="translate(4100.4 437.7)"><tspan x="0" y="0">u</tspan></text>
            <text class="cls-5" transform="translate(4125.6 437.7)"><tspan x="0" y="0">s</tspan></text>
            <text class="cls-8" transform="translate(4150.2 437.7)"><tspan x="0" y="0">e</tspan></text>
            <text class="cls-8" transform="translate(4174.7 437.7)"><tspan x="0" y="0">u</tspan></text>
            <text class="cls-8" transform="translate(4201.3 437.7)"><tspan x="0" y="0">m</tspan></text>
            <text class="cls-5" transform="translate(4242.6 437.7)"><tspan x="0" y="0">s</tspan></text>
          </g>
        </g>
      </g>
    </mask>
    <mask id="mask-1" x="3979" y="348" width="379" height="104.7" maskUnits="userSpaceOnUse">
      <g id="SVGID-2" data-name="SVGID">
        <g>
          <polygon class="cls-4" points="4205.3 351.3 4206.1 352 4155.1 403 4154.4 402.2 4205.3 351.3"/>
          <g class="cls-7">
            <text class="cls-10" transform="translate(3981 389.7)"><tspan x="0" y="0">Ha</tspan></text>
            <text class="cls-9" transform="translate(4042.6 389.7)"><tspan x="0" y="0">r</tspan></text>
            <text class="cls-8" transform="translate(4062.2 389.7)"><tspan x="0" y="0">v</tspan></text>
            <text class="cls-8" transform="translate(4085.9 389.7)"><tspan x="0" y="0">a</tspan></text>
            <text class="cls-5" transform="translate(4113 389.7)"><tspan x="0" y="0">r</tspan></text>
            <text class="cls-5" transform="translate(4129.8 389.7)"><tspan x="0" y="0">d</tspan></text>
            <text class="cls-5" transform="translate(3982.8 437.7)"><tspan x="0" y="0">A</tspan></text>
            <text class="cls-5" transform="translate(4016 437.7)"><tspan x="0" y="0">r</tspan></text>
            <text class="cls-5" transform="translate(4032.8 437.7)"><tspan x="0" y="0">t</tspan></text>
            <text class="cls-6" transform="translate(4049.3 437.7)"><tspan x="0" y="0"> </tspan></text>
            <text class="cls-8" transform="translate(4058.2 437.7)"><tspan x="0" y="0">M</tspan></text>
            <text class="cls-6" transform="translate(4100.4 437.7)"><tspan x="0" y="0">u</tspan></text>
            <text class="cls-5" transform="translate(4125.6 437.7)"><tspan x="0" y="0">s</tspan></text>
            <text class="cls-8" transform="translate(4150.2 437.7)"><tspan x="0" y="0">e</tspan></text>
            <text class="cls-8" transform="translate(4174.7 437.7)"><tspan x="0" y="0">u</tspan></text>
            <text class="cls-8" transform="translate(4201.3 437.7)"><tspan x="0" y="0">m</tspan></text>
            <text class="cls-5" transform="translate(4242.6 437.7)"><tspan x="0" y="0">s</tspan></text>
          </g>
        </g>
      </g>
    </mask>
  </defs>
  <text class="cls-2" transform="translate(4210 363)"><tspan x="0" y="0">Fogg Museum</tspan></text>
  <text class="cls-2" transform="translate(4210 377)"><tspan x="0" y="0">Busch-Reisinger Museum</tspan></text>
  <text class="cls-2" transform="translate(4210 390)"><tspan x="0" y="0">Arthur M. Sackler Museum</tspan></text>
  <g class="cls-12">
    <rect class="cls-1" x="3979" y="348" width="379" height="94"/>
  </g>
  <text class="cls-2" transform="translate(4210 363)"><tspan x="0" y="0">Fogg Museum</tspan></text>
  <text class="cls-2" transform="translate(4210 377)"><tspan x="0" y="0">Busch-Reisinger Museum</tspan></text>
  <text class="cls-2" transform="translate(4210 390)"><tspan x="0" y="0">Arthur M. Sackler Museum</tspan></text>
  <g class="cls-11">
    <rect class="cls-1" x="3979" y="348" width="379" height="94"/>
  </g>
  <g>
    <path class="cls-3" d="M229.7,14.7h.5c.3-.2.5-.3.5-.6v-6.7c0-.4-.2-.5-.5-.6h-.5v-.3h6.6v1.9h-.3c-.1-1.1-.7-1.4-1.5-1.4h-2.5v3.3h1.4c.9,0,1.2-.2,1.3-1h.3v2.6h-.3c-.1-1-.4-1.1-1.3-1.1h-1.4v3.4c0,.4.2.5.7.5h.7v.3h-3.7v-.3Z"/>
    <path class="cls-3" d="M239.7,9.5c1.7,0,2.8,1.3,2.8,2.9s-1.2,2.8-2.9,2.8-2.8-1.4-2.8-2.9c0-1.7,1.4-2.8,2.9-2.8ZM239.7,9.9c-1,0-1.7.9-1.7,2.4s.6,2.4,1.6,2.4,1.7-.9,1.7-2.4-.6-2.4-1.6-2.4Z"/>
    <path class="cls-3" d="M245.9,13.5c-.9,0-1.3.4-1.3.7s.2.5.8.5h1.4c1.5,0,2.3.5,2.3,1.6s-1.2,2.1-3,2.1-2.6-.5-2.6-1.6.4-.9,1.2-1.1c-.6-.1-.9-.6-.9-1s.3-1.1,1.5-1.2c-.8-.3-1.4-1-1.4-2s1.1-2,2.2-1.9c.4,0,.8.1,1.1.3l2.2-.2c.3,1.1-.4.8-.9.7l-1-.3c.5.4.8.9.8,1.5-.2,1.1-1.1,1.9-2.4,1.9ZM245.4,15.7h-.6c-.3.2-.6.6-.6,1,0,.9.9,1.2,1.7,1.2s2.2-.3,2.2-1.3-.7-1-1.5-.9h-1.2ZM244.8,11.4c0,1,.3,1.8,1.1,1.8s1.1-.9,1.2-1.6c0-1-.3-1.8-1.1-1.8-.8,0-1.2.6-1.2,1.6Z"/>
    <path class="cls-3" d="M252,13.5c-.9,0-1.3.4-1.3.7s.2.5.8.5h1.4c1.5,0,2.3.5,2.3,1.6s-1.2,2.1-3,2.1-2.6-.5-2.6-1.6.4-.9,1.2-1.1c-.6-.1-.9-.6-.9-1s.3-1.1,1.5-1.2c-.8-.3-1.4-1-1.4-2s1.1-2,2.2-1.9c.4,0,.8.1,1.1.3l2.2-.2c.3,1.1-.4.8-.9.7l-1-.3c.5.4.8.9.8,1.5-.1,1.1-1.1,1.9-2.4,1.9ZM251.6,15.7h-.6c-.3.2-.6.6-.6,1,0,.9.9,1.2,1.7,1.2s2.2-.3,2.2-1.3-.7-1-1.5-.9h-1.2ZM250.9,11.4c0,1,.3,1.8,1.1,1.8s1.1-.9,1.2-1.6c0-1-.3-1.8-1.1-1.8-.8,0-1.2.6-1.2,1.6Z"/>
    <path class="cls-3" d="M268.3,14.7h.6v.3h-3.5v-.3h.5c.3-.2.6-.3.6-.6,0,0,0-.9-.1-2.1l-.2-4.5-2.8,7.5h-.2l-3.2-7.5-.3,6.2c0,.5.1,1,1.2,1v.3h-3v-.3c.9,0,1.3-.5,1.3-1l.4-6.3c0-.4-.2-.6-.5-.6h-.6v-.3h2.6l2.6,6.5,2.5-6.5h2.5v.3h-.6c-.3,0-.6.2-.5.7l.2,4.6c0,.9.1,2.1.1,2.1-.2.3,0,.4.4.5Z"/>
    <path class="cls-3" d="M273.9,13.7c-.4.9-1,1.4-1.8,1.4-1.4,0-1.7-1.1-1.7-2.3v-2.3c0-.3-.1-.4-.3-.5h-.6v-.2h2c0-.1,0,3,0,3,0,1,.2,1.7,1.1,1.7s1.1-.3,1.4-1.2v-2.7c0-.3-.1-.4-.3-.5h-.6v-.3h2c0-.1,0,4.5,0,4.5,0,.2.1.3.5.4h.5v.3h-1.9l-.3-1.3Z"/>
    <path class="cls-3" d="M277.1,14.6l-.3.5h-.2v-2.1h.3c.2,1.1.8,1.6,1.6,1.6s1.1-.2,1.1-.9-.5-.9-1.1-1.1h-.5c-1-.4-1.3-1-1.3-1.6,0-1,.9-1.5,1.9-1.5s.9.1,1.3.4l.3-.4h.2v1.9h-.3c-.1-1-.7-1.5-1.4-1.5s-1,.3-1,.8.4.8,1,.9h.5c.9.3,1.5.8,1.5,1.7s-.9,1.7-2,1.7c-.6.2-1.2.1-1.6-.4Z"/>
    <path class="cls-3" d="M282.6,11.8v.4c0,1.4.7,2.4,1.8,2.4s1.3-.1,1.8-1.1h.3c-.5,1.2-1.3,1.7-2.3,1.7-1.7,0-2.7-1.2-2.7-2.8s1.2-2.8,2.7-2.8,2.2.8,2.3,2.3h-3.9ZM282.7,11.4h2.7c0-1.3-.6-1.6-1.2-1.6-.8,0-1.4.7-1.5,1.6Z"/>
    <path class="cls-3" d="M291.4,13.7c-.4.9-1,1.4-1.8,1.4-1.4,0-1.7-1.1-1.7-2.3v-2.3c0-.3-.1-.4-.3-.5h-.6v-.2h2c0-.1,0,3,0,3,0,1,.2,1.7,1.1,1.7s1.1-.3,1.4-1.2v-2.7c0-.3-.1-.4-.3-.5h-.6v-.3h2c0-.1,0,4.5,0,4.5,0,.2.1.3.5.4h.5v.3h-1.9l-.3-1.3Z"/>
    <path class="cls-3" d="M295.8,9.6v1.1c.5-.7,1.1-1.2,1.9-1.2s1.4.4,1.6,1.3c.4-.8,1.1-1.3,1.9-1.3s1.7.7,1.7,2.1v2.7c0,.2.1.3.5.4h.5v.3h-2.9v-.3h.5c.4-.2.4-.3.4-.5v-2.5c0-1-.2-1.6-1.1-1.6s-1,.3-1.4,1v3.2c0,.2.1.3.5.4h.5v.3h-2.9v-.3h.5c.4-.2.4-.3.4-.5v-2.5c0-1-.2-1.6-1.1-1.6s-1,.3-1.3.9v3.2c0,.3.1.4.4.4h.5v.4h-2.9v-.3h.5c.4-.2.4-.3.4-.5v-3.8c0-.3-.1-.3-.3-.4h-.6v-.3h1.8Z"/>
  </g>
  <g>
    <path class="cls-3" d="M229.7,28.7h.5c.3-.2.5-.3.5-.6v-6.7c0-.4-.2-.5-.5-.6h-.5v-.4h3.4c1.7-.1,3,.5,3,2s-.9,1.8-1.9,2c1.2.1,2.4.8,2.4,2.1s-1.3,2.4-3.1,2.4h-3.9v-.2h.1ZM231.9,24.4h.9c1.3,0,2.1-.6,2.1-1.8s-1-1.7-2-1.6h-.9v3.4h-.1ZM231.9,24.7v3.2c0,.7.3.7,1.2.7,1.5,0,2.2-.6,2.2-2s-.7-1.9-2.2-1.9h-1.2Z"/>
    <path class="cls-3" d="M241.7,27.7c-.4.9-1,1.4-1.8,1.4-1.4,0-1.7-1.1-1.7-2.3v-2.3c0-.3-.1-.4-.3-.5h-.6v-.4h2c0-.1,0,3,0,3,0,1,.2,1.7,1.1,1.7s1.1-.3,1.4-1.2v-2.7c0-.3-.1-.4-.3-.5h-.6v-.4h2c0-.1,0,4.5,0,4.5,0,.2.1.3.5.4h.5v.6h-1.9l-.3-1.3Z"/>
    <path class="cls-3" d="M244.9,28.6l-.3.5h-.2v-2.1h.3c.2,1.1.8,1.6,1.6,1.6s1.1-.2,1.1-.9-.5-.9-1.1-1.1h-.6c-1-.4-1.3-1-1.3-1.6,0-1,.9-1.5,1.9-1.5s.9.1,1.3.4l.3-.4h.2v1.9h-.3c-.1-1-.7-1.5-1.4-1.5s-1,.3-1,.8.4.8,1,.9h.5c.9.3,1.5.8,1.5,1.7s-.9,1.7-2,1.7c-.4.2-1.1.1-1.5-.4Z"/>
    <path class="cls-3" d="M254.2,27.7c-.5,1.2-1.5,1.5-2.2,1.5-1.7,0-2.7-1.3-2.7-2.8s1.2-2.9,2.8-2.9,1.9.3,1.9.9-.2.5-.5.5c-.8,0-.4-1.1-1.5-1.1s-1.6.8-1.6,2.3.7,2.4,1.8,2.4,1.1-.1,1.6-1l.4.2Z"/>
    <path class="cls-3" d="M256.8,24.8c.4-.8,1.1-1.3,1.9-1.3s1.7.7,1.7,2.1v2.7c0,.2.1.3.5.4h.5v.3h-2.9v-.3h.5c.4-.2.4-.3.4-.5v-2.5c0-1-.2-1.6-1.2-1.6s-1.1.3-1.4,1v3.2c0,.3.1.4.4.4h.5v.3h-2.9v-.3h.5c.4-.2.4-.3.4-.5v-7.1c0-.3-.1-.4-.3-.5h-.6v-.4l2-.2v4.8Z"/>
    <path class="cls-3" d="M262.1,26h3.2v.5h-3.2v-.5Z"/>
    <path class="cls-3" d="M266.5,20.5h3.2c1.5,0,3.3.3,3.3,2.1s-.9,2.1-2.4,2.2c1.1.1,1.7.6,2.1,1.8.6,1.7.9,2.2,2,2.2v.2c-.4.2-.7.2-1.1.2-1.2,0-1.8-1-2.2-2.3-.5-1.7-1.4-1.9-2.7-1.9v3.1c0,.4.2.5.7.5h.7v.4h-3.6v-.3h.5c.3-.2.6-.3.6-.6v-6.7c0-.4-.2-.5-.6-.6h-.5v-.3ZM268.8,24.6h.6c1.7,0,2.3-.8,2.3-2s-1.2-1.8-2.3-1.8h-.7v3.8h.1Z"/>
    <path class="cls-3" d="M276.2,25.8v.4c0,1.4.7,2.4,1.8,2.4s1.3-.1,1.8-1.1h.3c-.5,1.2-1.3,1.7-2.3,1.7-1.7,0-2.7-1.2-2.7-2.8s1.2-2.8,2.7-2.8,2.2.8,2.3,2.3h-3.9ZM276.3,25.4h2.7c0-1.3-.6-1.6-1.2-1.6s-1.4.7-1.5,1.6Z"/>
    <path class="cls-3" d="M281.7,24.6c0-.3-.1-.4-.3-.5h-.6v-.4l2-.2v4.7c0,.3,0,.4.4.4h.5v.4h-2.9v-.3h.5c.4-.2.4-.3.5-.5v-3.6h-.1ZM282.2,20.6c.4,0,.8.3.8.7s-.3.8-.8.8-.7-.3-.7-.8.3-.7.7-.7Z"/>
    <path class="cls-3" d="M285.1,28.6l-.3.5h-.2v-2.1h.3c.2,1.1.8,1.6,1.6,1.6s1.1-.2,1.1-.9-.5-.9-1.1-1.1h-.5c-1-.4-1.3-1-1.3-1.6,0-1,.9-1.5,1.9-1.5s.9.1,1.3.4l.3-.4h.2v1.9h-.4c-.1-1-.7-1.5-1.4-1.5s-1,.3-1,.8.4.8,1,.9h.5c.9.3,1.5.8,1.5,1.7s-.9,1.7-2,1.7c-.4.2-1.1.1-1.5-.4Z"/>
    <path class="cls-3" d="M290.4,24.6c0-.3-.1-.4-.3-.5h-.6v-.4l2-.2v4.7c0,.3,0,.4.4.4h.5v.4h-2.9v-.3h.5c.4-.2.4-.3.5-.5v-3.6h-.1ZM290.9,20.6c.4,0,.8.3.8.7s-.3.8-.8.8-.7-.3-.7-.8c0-.3.2-.7.7-.7Z"/>
    <path class="cls-3" d="M295,23.6v1.1c.6-.9,1.2-1.3,2-1.3s1.7.7,1.7,2.1v2.7c0,.2.1.3.5.4h.5v.4h-2.9v-.3h.5c.4-.2.4-.3.4-.5v-2.5c0-1-.3-1.6-1.2-1.6s-1,.3-1.4,1v3.1c0,.3.1.4.4.4h.5v.4h-3v-.3h.5c.4-.2.4-.3.4-.5v-3.8c0-.3-.1-.3-.3-.4h-.6v-.3h2Z"/>
    <path class="cls-3" d="M302.5,27.5c-.9,0-1.3.4-1.3.7s.2.5.8.5h1.4c1.5,0,2.3.5,2.3,1.6s-1.2,2.1-3,2.1-2.6-.5-2.6-1.6.4-.9,1.2-1.1c-.6-.1-.9-.6-.9-1s.3-1.1,1.5-1.2c-.8-.3-1.4-1-1.4-2s1.1-2,2.2-1.9c.4,0,.8.1,1.1.3l2.2-.2c.3,1.1-.4.8-.9.7l-1-.3c.5.4.8.9.8,1.5-.1,1.1-1,1.9-2.4,1.9ZM302.1,29.7h-.6c-.3.2-.6.6-.6,1,0,.9.9,1.2,1.7,1.2s2.2-.3,2.2-1.3-.7-1-1.5-.9h-1.2ZM301.5,25.4c0,1,.3,1.8,1.1,1.8s1.1-.9,1.2-1.6c0-1-.3-1.8-1.1-1.8s-1.2.6-1.2,1.6Z"/>
    <path class="cls-3" d="M307.5,25.8v.4c0,1.4.7,2.4,1.8,2.4s1.3-.1,1.8-1.1h.3c-.5,1.2-1.3,1.7-2.3,1.7-1.7,0-2.7-1.2-2.7-2.8s1.2-2.8,2.7-2.8,2.2.8,2.3,2.3h-3.9ZM307.5,25.4h2.7c0-1.3-.6-1.6-1.2-1.6s-1.4.7-1.5,1.6Z"/>
    <path class="cls-3" d="M313.9,23.6v1.5c.2-.9.8-1.7,1.7-1.7s.8.3.8.7-.3.5-.5.5c-.5,0-.7-.5-.8-.5-.3,0-.8.5-1,1.3v2.8c0,.3.1.4.4.4h.6v.4h-3v-.3h.5c.4-.2.4-.3.5-.5v-3.7c0-.3-.1-.4-.3-.5h-.8v-.3h1.9Z"/>
    <path class="cls-3" d="M329.4,28.7h.6v.3h-3.5v-.3h.5c.3-.2.6-.3.6-.6,0,0,0-.9-.1-2.1l-.2-4.5-2.8,7.5h-.2l-3.1-7.6-.3,6.2c0,.5.1,1,1.2,1v.4h-3v-.3c.9,0,1.3-.5,1.3-1l.4-6.3c0-.4-.2-.6-.5-.6h-.6v-.3h2.6l2.6,6.5,2.5-6.5h2.5v.3h-.6c-.3,0-.6.2-.5.7l.2,4.6c0,.9.1,2.1.1,2.1-.3.3-.1.4.3.5Z"/>
    <path class="cls-3" d="M335,27.7c-.4.9-1,1.4-1.8,1.4-1.4,0-1.7-1.1-1.7-2.3v-2.3c0-.3-.1-.4-.3-.5h-.6v-.4h2c0-.1,0,3,0,3,0,1,.2,1.7,1.1,1.7s1.1-.3,1.4-1.2v-2.7c0-.3-.1-.4-.3-.5h-.8c0,0,0-.2,0-.2h2c0-.1,0,4.5,0,4.5,0,.2.1.3.5.4h.5v.4h-1.9v-1.3Z"/>
    <path class="cls-3" d="M338.2,28.6l-.3.5h-.2v-2.1h.3c.2,1.1.8,1.6,1.6,1.6s1.1-.2,1.1-.9-.5-.9-1.1-1.1h-.5c-1-.4-1.3-1-1.3-1.6,0-1,.9-1.5,1.9-1.5s.9.1,1.3.4l.3-.4h.2v1.9h-.5c-.1-1-.7-1.5-1.4-1.5s-1,.3-1,.8.4.8,1,.9h.5c.9.3,1.5.8,1.5,1.7s-.9,1.7-2,1.7c-.3.2-1,.1-1.4-.4Z"/>
    <path class="cls-3" d="M343.8,25.8v.4c0,1.4.7,2.4,1.8,2.4s1.3-.1,1.8-1.1h.3c-.5,1.2-1.3,1.7-2.3,1.7-1.7,0-2.7-1.2-2.7-2.8s1.2-2.8,2.7-2.8,2.2.8,2.3,2.3h-3.9ZM343.8,25.4h2.7c0-1.3-.6-1.6-1.2-1.6s-1.4.7-1.5,1.6Z"/>
    <path class="cls-3" d="M352.5,27.7c-.4.9-1,1.4-1.8,1.4-1.4,0-1.7-1.1-1.7-2.3v-2.3c0-.3-.1-.4-.3-.5h-.6v-.4h2c0-.1,0,3,0,3,0,1,.2,1.7,1.1,1.7s1.1-.3,1.4-1.2v-2.7c0-.3-.1-.4-.3-.5h-.6v-.4h2c0-.1,0,4.5,0,4.5,0,.2.1.3.5.4h.5v.6h-1.9l-.3-1.3Z"/>
    <path class="cls-3" d="M356.9,23.6v1.1c.5-.7,1.1-1.2,1.9-1.2s1.4.4,1.6,1.3c.4-.8,1.1-1.3,1.9-1.3s1.7.7,1.7,2.1v2.7c0,.2.1.3.5.4h.5v.3h-2.9v-.3h.5c.4-.2.4-.3.4-.5v-2.5c0-1-.2-1.6-1.1-1.6s-1,.3-1.4,1v3.2c0,.2.1.3.5.4h.5v.3h-2.9v-.3h.5c.4-.2.4-.3.4-.5v-2.5c0-1-.2-1.6-1.1-1.6s-1,.3-1.3.9v3.2c0,.3.1.4.4.4h.5v.4h-3v-.3h.5c.4-.2.4-.3.4-.5v-3.8c0-.3-.1-.3-.3-.4h-.6v-.3h1.9Z"/>
  </g>
  <g>
    <path class="cls-3" d="M233.1,33.3h.3l3.3,7.9c.1.3.3.5.7.5h.4v.3h-3.4v-.3h.5c.5,0,.6-.3.4-.6l-.8-2.1h-3l-.6,1.6c-.4,1,0,1.1.5,1.2h.3v.2h-2.7v-.3h.3c.5,0,.7-.3,1.1-1.1l2.7-7.3ZM231.7,38.2h2.4l-1.2-3.1-1.2,3.1Z"/>
    <path class="cls-3" d="M240,36.6v1.5c.2-.9.8-1.7,1.7-1.7s.8.3.8.7-.3.5-.5.5c-.5,0-.7-.5-.8-.5-.3,0-.8.5-1,1.3v2.8c0,.3.1.4.4.4h.6v.4h-3v-.3h.5c.4-.2.4-.3.5-.5v-3.7c0-.3-.1-.4-.3-.5h-.6v-.4h1.7Z"/>
    <path class="cls-3" d="M244.7,35.3v1.5h1.6v.4h-1.6v3.5c0,.6.3.9.7.9s.7-.2.9-.4v.2c-.5.7-1,.8-1.5.8s-1.3-.4-1.3-1.3v-3.7h-.8v-.4h.9l.8-1.5s.3,0,.3,0Z"/>
    <path class="cls-3" d="M249,37.8c.4-.8,1.1-1.3,1.9-1.3s1.7.7,1.7,2.1v2.7c0,.2.1.3.5.4h.5v.3h-2.9v-.3h.5c.4-.2.4-.3.4-.5v-2.5c0-1-.2-1.6-1.2-1.6s-1.1.3-1.4,1v3.2c0,.3.1.4.4.4h.5v.3h-2.9v-.3h.5c.4-.2.4-.3.4-.5v-7.1c0-.3-.1-.4-.3-.5h-.6v-.4l2-.2v4.8h0Z"/>
    <path class="cls-3" d="M258.4,40.7c-.4.9-1,1.4-1.8,1.4-1.4,0-1.7-1.1-1.7-2.3v-2.3c0-.3-.1-.4-.3-.5h-.6v-.4h2c0,0,0,3,0,3,0,1,.2,1.7,1.1,1.7s1.1-.3,1.4-1.2v-2.7c0-.3-.1-.4-.3-.5h-.6v-.4h2c0,0,0,4.5,0,4.5,0,.2.1.3.5.4h.5v.6h-1.9l-.3-1.3Z"/>
    <path class="cls-3" d="M262.9,36.6v1.5c.2-.9.8-1.7,1.7-1.7s.8.3.8.7-.3.5-.5.5c-.5,0-.7-.5-.8-.5-.3,0-.8.5-1,1.3v2.8c0,.3.1.4.4.4h.6v.4h-3v-.3h.5c.4-.2.4-.3.5-.5v-3.7c0-.3-.1-.4-.3-.5h-.8v-.3h1.9Z"/>
    <path class="cls-3" d="M278.5,41.7h.6v.3h-3.5v-.3h.5c.3-.2.6-.3.6-.6,0,0,0-.9-.1-2.1l-.2-4.5-2.8,7.5h-.2l-3.1-7.6-.3,6.2c0,.5.1,1,1.2,1v.4h-3v-.3c.9,0,1.3-.5,1.3-1l.4-6.3c0-.4-.2-.6-.5-.6h-.6v-.3h2.6l2.6,6.5,2.5-6.5h2.5v.3h-.6c-.3,0-.6.2-.5.7l.2,4.6c0,.9.1,2.1.1,2.1-.2.3,0,.4.3.5Z"/>
    <path class="cls-3" d="M281.2,40.5c.5,0,.9.4.9.8s-.4.9-.9.9-.8-.4-.8-.9c0-.5.3-.8.8-.8Z"/>
    <path class="cls-3" d="M290.6,40.2c0-.9-.6-1.5-1.7-1.9l-1.3-.4c-1.3-.4-1.8-1.3-1.8-2.3s1.3-2.3,2.8-2.3,1.8.3,2.4.6v1.5c.1,0-.2,0-.2,0-.5-1.2-1.3-1.7-2.2-1.7s-1.7.5-1.7,1.3.3,1.3,1.4,1.6l1,.3c.8.3,2.4.8,2.4,2.5s-1.2,2.6-3,2.6-2.2-.3-2.9-.7v-1.7c-.1,0,.1,0,.1,0,.6,1.7,1.5,1.9,2.8,1.9,1.3.2,1.9-.5,1.9-1.3Z"/>
    <path class="cls-3" d="M297.1,37.9v2.7c0,.5.1.9.5.9s.4,0,.6-.3h.2c-.4.7-.8.9-1.2.9s-.9-.3-1-.9c-.5.7-1.1.9-1.6.9-.9,0-1.5-.6-1.5-1.4,0-1.2,1.2-1.7,3-1.7h.1v-1.3c0-.6-.2-1-.8-1s-.9.3-.9.7-.1.7-.5.7-.5-.2-.5-.5c0-.7.9-1.3,1.9-1.3.8.2,1.7.5,1.7,1.6ZM294.9,41.6c.4,0,.9-.2,1.2-.6v-1.6c-1.5,0-2,.7-2,1.3-.1.6.3.9.8.9Z"/>
    <path class="cls-3" d="M303.7,40.7c-.5,1.2-1.5,1.5-2.2,1.5-1.7,0-2.7-1.3-2.7-2.8s1.2-2.9,2.8-2.9,1.9.3,1.9.9-.2.5-.5.5c-.8,0-.4-1.1-1.5-1.1s-1.6.8-1.6,2.3.7,2.4,1.8,2.4,1.1,0,1.6-1l.4.2Z"/>
    <path class="cls-3" d="M305,33.7h-.6v-.4l2-.2v8c0,.3.1.4.4.4h.5v.5h-2.9v-.3h.5c.4-.2.4-.3.5-.5v-7.1c-.1-.2-.2-.3-.4-.4ZM307.9,37.9c.6-.6.4-.9-.3-.9v-.3h2.6v.3c-.7,0-1.1.3-1.5.7l-1.3,1.2,2.2,2.3c.4.5.7.5,1.2.5v.3h-2.9v-.2l.8-.2-2.2-2.4,1.4-1.3Z"/>
    <path class="cls-3" d="M311.6,33.7h-.6v-.4l2-.2v8c0,.3.1.4.4.4h.5v.5h-2.9v-.3h.5c.4-.2.4-.3.5-.5v-7.1c-.1-.2-.2-.3-.4-.4Z"/>
    <path class="cls-3" d="M315.8,38.8v.4c0,1.4.7,2.4,1.8,2.4s1.3,0,1.8-1.1h.3c-.5,1.2-1.3,1.7-2.3,1.7-1.7,0-2.7-1.2-2.7-2.8s1.2-2.8,2.7-2.8,2.2.8,2.3,2.3h-3.9ZM315.8,38.4h2.7c0-1.3-.6-1.6-1.2-1.6-.7,0-1.4.7-1.5,1.6Z"/>
    <path class="cls-3" d="M322.4,36.6v1.5c.2-.9.8-1.7,1.7-1.7s.8.3.8.7-.3.5-.5.5c-.5,0-.7-.5-.8-.5-.3,0-.8.5-1,1.3v2.8c0,.3.1.4.4.4h.6v.4h-3v-.3h.5c.4-.2.4-.3.5-.5v-3.7c0-.3-.1-.4-.3-.5h-.6v-.4h1.7Z"/>
    <path class="cls-3" d="M338,41.7h.6v.3h-3.5v-.3h.5c.3-.2.6-.3.6-.6,0,0,0-.9-.1-2.1l-.2-4.5-2.8,7.5h-.2l-3.1-7.6-.3,6.2c0,.5.1,1,1.2,1v.4h-3v-.3c.9,0,1.3-.5,1.3-1l.4-6.3c0-.4-.2-.6-.5-.6h-.6v-.3h2.6l2.6,6.5,2.5-6.5h2.5v.3h-.6c-.3,0-.6.2-.5.7l.2,4.6c0,.9.1,2.1.1,2.1-.2.3,0,.4.3.5Z"/>
    <path class="cls-3" d="M343.7,40.7c-.4.9-1,1.4-1.8,1.4-1.4,0-1.7-1.1-1.7-2.3v-2.3c0-.3-.1-.4-.3-.5h-.6v-.4h2c0,0,0,3,0,3,0,1,.2,1.7,1.1,1.7s1.1-.3,1.4-1.2v-2.7c0-.3-.1-.4-.3-.5h-.6v-.4h2c0,0,0,4.5,0,4.5,0,.2.1.3.5.4h.5v.6h-1.9l-.3-1.3Z"/>
    <path class="cls-3" d="M347,41.6l-.3.5h-.2v-2.1h.3c.2,1.1.8,1.6,1.6,1.6s1.1-.2,1.1-.9-.5-.9-1.1-1.1h-.6c-1-.4-1.3-1-1.3-1.6,0-1,.9-1.5,1.9-1.5s.9,0,1.3.4l.3-.4h.2v1.9h-.3c-.1-1-.7-1.5-1.4-1.5s-1,.3-1,.8.4.8,1,.9h.5c.9.3,1.5.8,1.5,1.7s-.9,1.7-2,1.7c-.4.2-1,0-1.5-.4Z"/>
    <path class="cls-3" d="M352.7,38.8v.4c0,1.4.7,2.4,1.8,2.4s1.3,0,1.8-1.1h.3c-.5,1.2-1.3,1.7-2.3,1.7-1.7,0-2.7-1.2-2.7-2.8s1.2-2.8,2.7-2.8,2.2.8,2.3,2.3h-3.9ZM352.8,38.4h2.7c0-1.3-.6-1.6-1.2-1.6-.8,0-1.4.7-1.5,1.6Z"/>
    <path class="cls-3" d="M361.6,40.7c-.4.9-1,1.4-1.8,1.4-1.4,0-1.7-1.1-1.7-2.3v-2.3c0-.3-.1-.4-.3-.5h-.6v-.4h2c0,0,0,3,0,3,0,1,.2,1.7,1.1,1.7s1.1-.3,1.4-1.2v-2.7c0-.3-.1-.4-.3-.5h-.6v-.4h2c0,0,0,4.5,0,4.5,0,.2.1.3.5.4h.5v.6h-1.9l-.3-1.3Z"/>
    <path class="cls-3" d="M366.1,36.6v1.1c.5-.7,1.1-1.2,1.9-1.2s1.4.4,1.6,1.3c.4-.8,1.1-1.3,1.9-1.3s1.7.7,1.7,2.1v2.7c0,.2.1.3.5.4h.5v.3h-2.9v-.3h.5c.4-.2.4-.3.4-.5v-2.5c0-1-.2-1.6-1.1-1.6s-1,.3-1.4,1v3.2c0,.2.1.3.5.4h.5v.3h-2.9v-.3h.5c.4-.2.4-.3.4-.5v-2.5c0-1-.2-1.6-1.1-1.6s-1,.3-1.3.9v3.2c0,.3.1.4.4.4h.5v.4h-2.9v-.3h.5c.4-.2.4-.3.4-.5v-3.8c0-.3-.1-.3-.3-.4h-.6v-.4h1.8Z"/>
  </g>
  <g>
    <polygon class="cls-3" points="224.3 3.3 225.1 4 174.1 55 173.4 54.2 224.3 3.3"/>
    <g>
      <path class="cls-3" d="M26.4,25.8H9.4v16c.1,0-5.5,0-5.5,0V7h5.6l-.2,14h17V7h5.3v34.7h-5.3v-15.9Z"/>
      <path class="cls-3" d="M54.6,38.6c-1.1,1.4-3.4,3.9-7.6,3.9-6.4,0-11.1-4.5-11.1-12.9s3.9-13.2,11.3-13.2,6.4,2.3,7.4,3.7v-3.1h5v24.7h-4.9v-3.1ZM54.7,29.6c0-5.4-2.2-8.9-6.6-8.9s-6.6,3.5-6.6,8.9,2.3,8.7,6.6,8.7,6.6-3.3,6.6-8.7Z"/>
      <path class="cls-3" d="M65.5,17h4.8v4.3c1-2,2.8-4.2,5.6-4.7,1.2-.1,1.9-.2,2.8-.2v5.7c-.2,0-1-.2-1.8-.2-2.3,0-4.4,1.2-5.4,3.7-.7,1.5-.8,4.2-.8,7.6v8.4h-5.2s0-24.6,0-24.6Z"/>
      <path class="cls-3" d="M81.9,17h6.1l6.5,19.7,6.5-19.7h5.6l-9.1,24.7h-6.4l-9.2-24.7Z"/>
      <path class="cls-3" d="M125.9,38.6c-1.1,1.4-3.4,3.9-7.6,3.9-6.4,0-11.1-4.5-11.1-12.9s3.9-13.2,11.3-13.2,6.4,2.3,7.4,3.7v-3.1h5v24.7h-4.9v-3.1ZM125.9,29.6c0-5.4-2.2-8.9-6.6-8.9s-6.6,3.5-6.6,8.9,2.3,8.7,6.6,8.7,6.6-3.3,6.6-8.7Z"/>
      <path class="cls-3" d="M135.8,17h4.8v4.3c1-2,2.8-4.2,5.6-4.7,1.2-.1,1.9-.2,2.8-.2v5.7c-.2,0-1-.2-1.8-.2-2.3,0-4.4,1.2-5.4,3.7-.7,1.5-.8,4.2-.8,7.6v8.4h-5.2v-24.6h0Z"/>
      <path class="cls-3" d="M151.1,29.6c0-6.7,3.9-13.2,11.2-13.2s6.3,2.3,7.3,3.7l-.2-14.1h5.3v35.8h-4.9v-3.2c-1.2,1.6-3.5,3.9-7.6,3.9-6.6,0-11.1-4.5-11.1-12.9ZM169.8,29.6c0-5.4-2.2-8.9-6.6-8.9s-6.6,3.5-6.6,8.9,2.3,8.7,6.6,8.7,6.6-3.3,6.6-8.7Z"/>
      <path class="cls-3" d="M15.5,54.9h6.7l12.4,34.8h-6.3l-3-9.1h-13.7l-3.1,9.1H2.7l12.8-34.8ZM12.9,76.5h10.9l-5.4-16.5-5.5,16.5Z"/>
      <path class="cls-3" d="M38.8,65h4.8v4.3c1-2,2.8-4.2,5.6-4.7,1.2,0,1.9-.2,2.8-.2v5.7c-.2,0-1-.2-1.8-.2-2.3,0-4.4,1.2-5.4,3.7-.7,1.5-.8,4.2-.8,7.6v8.4h-5.2s0-24.6,0-24.6Z"/>
      <path class="cls-3" d="M52.9,65h3.5l.3-6.7h4.9v6.7h4.9v4h-4.9v12.7c0,2.1,0,4,2.7,4s2.4,0,2.4,0l.2,4.1s-2.1.4-4.7.4c-4.4,0-5.9-2.2-5.9-6.8v-14.2h-3.4v-4.1h0Z"/>
      <path class="cls-3" d="M81.1,55h7.6l10.8,28.9,10.9-28.9h7.4v34.7h-5.5l.3-27.3-10.3,27.3h-6.2l-10.2-27.7.4,27.7h-5.2s0-34.7,0-34.7Z"/>
      <path class="cls-3" d="M123,81.2v-16.2h5.4v13.9c0,3.3.4,7,4.7,7s4.3-1.6,5.2-3.8c.5-1.3.6-2.9.6-7.7v-9.4h5.3v24.7h-4.9v-3.3c-.9,1.4-3.2,4-7.8,4-5.9,0-8.5-4.4-8.5-9.2Z"/>
      <path class="cls-3" d="M146.6,83.6l5.3-.9c0,.6.8,3.7,5.4,3.7s4.7-1.1,4.7-3-1.6-3.1-5.6-4.1c-6.6-1.7-8.7-4.1-8.7-7.9s3.3-7.2,9.5-7.2c8.9,0,9.6,6.3,9.6,6.3l-5,1c0-.3-.5-3.3-4.7-3.3s-4.1,1.1-4.1,2.9,1.4,2.8,6,3.9c6.1,1.6,8.4,4,8.4,7.8s-2.9,7.5-10.4,7.5c-9.8.2-10.4-6.7-10.4-6.7Z"/>
      <path class="cls-3" d="M171.5,77.5c0-7.4,4-13.2,11.9-13.2s10.7,4.6,10.8,11.5c0,1,0,2-.1,2.6h-17.2c.1,4.7,2.7,7.8,6.7,7.8s5.7-3.2,5.7-3.2l4.7,1.5s-2.6,5.9-10.4,5.9c-8.2,0-12.1-5.3-12.1-12.9ZM176.8,74.8h12.1c0-3.4-2-6.3-5.7-6.3-3.4,0-5.9,2.5-6.4,6.3Z"/>
      <path class="cls-3" d="M197.3,81.2v-16.2h5.4v13.9c0,3.3.4,7,4.7,7s4.3-1.6,5.2-3.8c.5-1.3.6-2.9.6-7.7v-9.4h5.3v24.7h-4.9v-3.3c-.9,1.4-3.2,4-7.8,4-5.9,0-8.5-4.4-8.5-9.2Z"/>
      <path class="cls-3" d="M224.1,65h4.9v3.5c1.2-1.7,3.5-4.1,7.8-4.1s6.5,2.4,7.5,4.5c1-1.8,3.4-4.5,8-4.5s8.7,4.4,8.7,9.8v15.5h-5.4v-14c0-3.1-.4-6.9-4.9-6.9s-3.9,1.2-4.8,3.5c-.6,1.6-.7,3.3-.7,8.5v8.9h-5.3v-14c0-3.1-.4-6.9-4.8-6.9s-4,1.3-4.9,3.5c-.6,1.7-.7,3.2-.7,8v9.4h-5.3v-24.7h-.1Z"/>
      <path class="cls-3" d="M263.6,83.6l5.3-.9c0,.6.8,3.7,5.4,3.7s4.7-1.1,4.7-3-1.6-3.1-5.6-4.1c-6.6-1.7-8.7-4.1-8.7-7.9s3.3-7.2,9.5-7.2c8.9,0,9.6,6.3,9.6,6.3l-5,1c0-.3-.5-3.3-4.7-3.3s-4.1,1.1-4.1,2.9,1.4,2.8,6,3.9c6.1,1.6,8.4,4,8.4,7.8s-2.9,7.5-10.4,7.5c-9.7.2-10.4-6.7-10.4-6.7Z"/>
    </g>
  </g>
</svg>